# xmcd
#
# Track frame offsets: 
#        150
#        17769
#        32200
#        47635
#        65943
#        80603
#        94852
#        109727
#        129755
#        144547
#        159398
#
# Disc length: 2358 seconds
#
# Revision: 0
# Processed by: cddbd v1.5.2PL0 Copyright (c) Steve Scherf et al.
# Submitted via: ExactAudioCopyFreeDBPlugin 1.0
#
DISCID=9109340b
DTITLE=Y'Akoto - Mermaid Blues
DYEAR=2017
DGENRE=Blues
TTITLE0=Fool Me Once
TTITLE1=Take Him Back
TTITLE2=All I Want (comme ci, comme ca)
TTITLE3=Love Me Harder
TTITLE4=Maggie
TTITLE5=Reception
TTITLE6=We Walk The Line
TTITLE7=Drink My Friend
TTITLE8=Who I Am
TTITLE9=Sunday
TTITLE10=King Of The Dark
EXTD=
EXTT0=
EXTT1=
EXTT2=
EXTT3=
EXTT4=
EXTT5=
EXTT6=
EXTT7=
EXTT8=
EXTT9=
EXTT10=
PLAYORDER=
